<?xml version="1.0" standalone="no"?>
<!DOCTYPE svg PUBLIC "-//W3C//DTD SVG 20010904//EN"
 "http://www.w3.org/TR/2001/REC-SVG-20010904/DTD/svg10.dtd">
<svg version="1.0" xmlns="http://www.w3.org/2000/svg"
 width="800.000000pt" height="800.000000pt" viewBox="0 0 800.000000 800.000000"
 preserveAspectRatio="xMidYMid meet">

<g transform="translate(0.000000,800.000000) scale(0.100000,-0.100000)"
fill="#000000" stroke="none">
<path d="M3815 7993 c-705 -41 -1316 -225 -1893 -572 -287 -173 -512 -349
-757 -595 -638 -640 -1023 -1430 -1142 -2341 -26 -201 -26 -769 0 -970 61
-467 180 -866 382 -1280 196 -402 437 -738 765 -1065 245 -246 465 -418 755
-593 586 -352 1212 -538 1933 -572 l142 -7 0 1576 0 1576 -71 0 c-109 0 -161
35 -216 145 -57 113 -110 484 -113 791 -1 187 7 262 76 659 17 95 78 345 94
382 10 25 116 83 152 83 13 1 34 7 48 15 l25 13 0 1381 0 1381 -65 -2 c-36 -1
-87 -3 -115 -5z m-2648 -4195 c11 -13 30 -54 41 -93 38 -127 45 -205 39 -475
-5 -270 -27 -466 -67 -602 -26 -88 -26 -102 14 -269 19 -79 42 -183 52 -231
10 -53 22 -89 31 -92 8 -4 54 27 111 73 277 224 559 344 865 367 140 11 197
-11 197 -77 0 -30 -1 -31 -32 -25 -167 34 -420 -10 -623 -109 -259 -127 -450
-304 -603 -558 -72 -119 -90 -142 -120 -151 -38 -13 -62 2 -62 37 0 36 91 206
148 276 l36 44 -18 46 c-30 79 -75 254 -96 375 -5 33 -12 62 -15 64 -3 3 -31
-24 -62 -59 -132 -148 -192 -189 -295 -204 -74 -11 -64 7 53 102 97 79 153
142 206 231 59 99 66 135 58 277 -6 118 1 175 25 175 5 0 10 -15 10 -32 0 -41
18 -108 29 -108 19 0 65 459 57 560 -16 199 -27 305 -32 327 -6 23 -7 23 -25
7 -37 -33 -79 -210 -80 -337 0 -97 -10 -160 -24 -159 -5 1 -11 13 -13 27 -3
21 -6 24 -18 14 -23 -19 -25 6 -13 186 6 94 12 205 13 249 1 76 2 79 36 108
71 61 141 75 177 36z m1866 -45 c11 -13 18 -58 27 -163 14 -173 22 -223 35
-223 6 0 26 31 45 70 44 86 125 216 145 233 24 20 31 -16 10 -58 -9 -21 -35
-88 -57 -151 -89 -259 -111 -293 -176 -266 -35 15 -53 62 -72 190 -20 133 -29
146 -50 68 -16 -57 -79 -180 -96 -187 -28 -11 -49 22 -54 83 l-5 61 -41 -40
c-39 -37 -41 -42 -47 -113 -5 -75 -45 -195 -75 -229 -23 -27 -81 -34 -115 -14
-17 9 -31 15 -34 13 -2 -2 -24 -71 -48 -153 -35 -115 -51 -155 -74 -177 -27
-28 -31 -29 -66 -17 -51 17 -65 54 -66 177 -1 136 -22 326 -35 330 -16 5 -59
-136 -89 -288 -13 -69 -27 -133 -31 -142 -8 -23 -37 -30 -68 -16 -27 13 -30
19 -41 82 -6 36 -18 47 -30 27 -8 -13 -14 -71 -14 -147 -1 -52 -4 -64 -21 -73
-27 -15 -57 -4 -66 23 -6 18 -10 14 -34 -34 -31 -60 -97 -132 -144 -156 -39
-20 -105 -22 -139 -4 -27 15 -33 32 -54 180 -23 159 49 315 137 296 43 -9 80
-42 80 -71 0 -44 -71 -214 -97 -231 -47 -31 -13 -140 36 -113 32 17 89 90 148
190 l55 95 -11 98 c-11 90 -11 101 5 118 22 25 51 24 66 -1 18 -28 26 -25 44
14 23 46 65 69 113 61 l38 -6 23 78 c39 133 82 203 126 203 13 0 28 -9 33 -19
6 -11 19 -130 30 -266 11 -136 22 -249 25 -252 12 -13 28 17 82 153 l57 147 2
170 1 169 47 44 c37 35 53 44 82 44 46 0 81 -24 106 -72 11 -21 22 -38 25 -38
3 0 19 8 36 18 l30 17 -7 87 c-6 85 -6 87 19 103 35 23 58 16 78 -25 l17 -34
31 66 c16 37 38 71 47 77 27 16 58 13 76 -6z m456 -119 c17 -14 31 -34 31 -45
0 -41 -105 -65 -142 -32 -25 22 -23 32 14 70 38 40 57 41 97 7z"/>
<path d="M2586 3476 c-7 -29 8 -76 25 -76 8 0 10 14 6 41 -7 52 -22 70 -31 35z"/>
<path d="M2527 3353 c-20 -19 7 -239 28 -237 19 2 45 61 54 125 10 76 9 79
-30 102 -33 19 -42 20 -52 10z"/>
<path d="M1561 2806 c-6 -25 -11 -60 -10 -78 1 -32 1 -31 19 17 20 54 25 105
11 105 -5 0 -14 -20 -20 -44z"/>
<path d="M6794 6422 c-34 -26 -88 -67 -120 -92 -33 -24 -156 -119 -274 -210
-118 -91 -262 -202 -320 -246 -58 -44 -186 -143 -285 -219 -99 -77 -201 -155
-226 -174 -40 -30 -48 -41 -53 -79 -3 -25 -4 -47 -2 -50 3 -2 42 23 87 57 75
57 82 60 95 44 12 -16 3 -28 -87 -118 -98 -99 -99 -101 -99 -149 l0 -48 153
145 c83 79 303 285 487 457 628 587 740 695 740 712 0 30 -31 20 -96 -30z"/>
<path d="M5230 5221 c-164 -130 -175 -140 -178 -174 -2 -21 1 -37 6 -37 6 0
28 15 50 33 23 17 102 77 176 132 l136 99 0 43 c0 24 -3 43 -7 42 -5 0 -87
-62 -183 -138z"/>
<path d="M5237 4976 c-185 -179 -200 -199 -177 -236 9 -15 11 -13 195 160 39
37 94 89 123 116 51 47 53 51 50 95 l-3 47 -188 -182z"/>
<path d="M3912 5003 c-71 -140 -148 -434 -177 -681 -31 -258 -13 -630 42 -852
37 -154 122 -255 198 -236 l25 6 2 287 3 286 47 14 c86 25 144 123 131 222 -6
46 4 61 43 61 12 0 58 18 102 40 91 46 171 124 211 206 13 27 34 63 46 80 16
20 25 52 30 99 l8 69 -47 -41 c-33 -29 -71 -50 -126 -68 -146 -49 -242 -129
-301 -252 -16 -34 -34 -65 -39 -68 -5 -3 -23 1 -39 10 -17 8 -39 15 -51 15
-20 0 -20 5 -20 223 0 214 -13 364 -40 457 -5 19 -10 61 -10 92 0 31 -4 59
-10 63 -5 3 -18 -11 -28 -32z m584 -578 c17 -43 -68 -162 -150 -209 -48 -28
-112 -47 -132 -39 -39 15 6 116 81 182 72 63 188 101 201 66z m-466 -420 c0
-7 -7 -18 -15 -25 -13 -11 -15 -7 -15 25 0 32 2 36 15 25 8 -7 15 -18 15 -25z"/>
<path d="M4925 4987 c-95 -68 -114 -90 -141 -159 -15 -38 -31 -71 -35 -74 -4
-2 -26 16 -49 40 -69 73 -139 94 -213 62 -44 -18 -95 -78 -103 -121 -17 -92
20 -166 71 -143 32 14 37 31 20 71 -43 104 69 193 154 121 17 -14 31 -34 31
-44 0 -27 18 -34 39 -16 21 19 82 21 99 4 15 -15 14 -16 46 67 22 60 34 77 76
108 43 32 50 42 50 72 0 41 -4 42 -45 12z"/>
<path d="M4935 4725 c-5 -2 -29 -9 -53 -15 l-42 -11 15 -29 c18 -36 38 -37 85
-7 26 16 34 28 32 45 -3 21 -13 25 -37 17z"/>
<path d="M4760 4636 c0 -46 14 -66 33 -47 12 12 -8 91 -23 91 -6 0 -10 -20
-10 -44z"/>
<path d="M4893 4533 c-8 -3 -13 -24 -13 -53 0 -26 -9 -78 -21 -115 -11 -37
-19 -69 -17 -70 2 -2 19 8 37 22 56 44 75 119 50 192 -11 31 -14 33 -36 24z"/>
<path d="M4700 4373 c0 -20 22 -83 28 -83 4 0 16 13 25 30 l18 29 -30 16 c-34
17 -41 18 -41 8z"/>
</g>
</svg>
